<svg xmlns="http://www.w3.org/2000/svg" xmlns:xlink="http://www.w3.org/1999/xlink" width="24" height="24"><defs><path id="a" d="M0 0h18v12.355H0z"/><path id="c" d="M.039 0h3.375v3.369H.039z"/><path id="e" d="M.05 0h3.375v3.369H.05z"/></defs><g fill="none" fill-rule="evenodd" transform="translate(3 3)"><mask id="b" fill="#fff"><use xlink:href="#a"/></mask><path fill="#FFF" d="M14.625 7.3a.562.562 0 01-1.125 0V5.054a.562.562 0 011.125 0V7.3zm-3.375 0a.563.563 0 01-1.125 0V5.054a.562.562 0 011.125 0V7.3zm-3.375 0a.563.563 0 01-1.125 0V5.054a.562.562 0 011.125 0V7.3zm9.995-4.852a.565.565 0 00-.432-.201H4.217l-.49-1.83A.559.559 0 003.184 0H.563a.563.563 0 100 1.123h2.189l.472 1.768v.002c.003.02.008.04.013.06l1.8 6.717c0 .004.002.01.004.014l.603 2.254a.561.561 0 00.543.417h9a.562.562 0 100-1.123H6.62l-.315-1.181 10.036-.506a.563.563 0 00.526-.459L17.99 2.91a.56.56 0 00-.121-.46z" mask="url(#b)"/><g transform="translate(5.586 13.478)"><mask id="d" fill="#fff"><use xlink:href="#c"/></mask><path fill="#FFF" d="M1.726 0a1.685 1.685 0 10.001 3.37c.932 0 1.688-.755 1.688-1.685S2.658 0 1.726 0" mask="url(#d)"/></g><g transform="translate(12.325 13.478)"><mask id="f" fill="#fff"><use xlink:href="#e"/></mask><path fill="#FFF" d="M1.737 0a1.686 1.686 0 100 3.37c.932 0 1.688-.755 1.688-1.685S2.669 0 1.737 0" mask="url(#f)"/></g></g></svg>