<svg xmlns="http://www.w3.org/2000/svg" xmlns:xlink="http://www.w3.org/1999/xlink" width="101" height="60"><defs><path id="a" d="M.01.43v49.012a2.68 2.68 0 002.68 2.681h33.208a2.61 2.61 0 001.604-.541 2.647 2.647 0 001.076-2.14V.43H.011z"/><path id="c" d="M.01.43v49.012a2.68 2.68 0 002.68 2.681h33.208a2.61 2.61 0 001.604-.541 2.647 2.647 0 001.076-2.14V.43H.011z"/><path id="e" d="M.01.43v49.012a2.68 2.68 0 002.68 2.681h33.208a2.61 2.61 0 001.604-.541 2.647 2.647 0 001.076-2.14V.43H.011z"/><path id="g" d="M.01.43v49.012a2.68 2.68 0 002.68 2.681h33.208a2.61 2.61 0 001.604-.541 2.647 2.647 0 001.076-2.14V.43H.011z"/><path id="i" d="M.01.43v49.012a2.68 2.68 0 002.68 2.681h33.208a2.61 2.61 0 001.604-.541 2.647 2.647 0 001.076-2.14V.43H.011z"/><path id="k" d="M.01.43v49.012a2.68 2.68 0 002.68 2.681h33.208a2.61 2.61 0 001.604-.541 2.647 2.647 0 001.076-2.14V.43H.011z"/><path id="m" d="M.01.43v49.012a2.68 2.68 0 002.68 2.681h33.208a2.61 2.61 0 001.604-.541 2.647 2.647 0 001.076-2.14V.43H.011z"/><path id="o" d="M.01.43v49.012a2.68 2.68 0 002.68 2.681h33.208a2.61 2.61 0 001.604-.541 2.647 2.647 0 001.076-2.14V.43H.011z"/><path id="q" d="M.01.43v49.012a2.68 2.68 0 002.68 2.681h33.208a2.61 2.61 0 001.604-.541 2.647 2.647 0 001.076-2.14V.43H.011z"/><path id="s" d="M.01.43v49.012a2.68 2.68 0 002.68 2.681h33.208a2.61 2.61 0 001.604-.541 2.647 2.647 0 001.076-2.14V.43H.011z"/><path id="u" d="M.01.43v49.012a2.68 2.68 0 002.68 2.681h33.208a2.61 2.61 0 001.604-.541 2.647 2.647 0 001.076-2.14V.43H.011z"/><path id="w" d="M.01.43v49.012a2.68 2.68 0 002.68 2.681h33.208a2.61 2.61 0 001.604-.541 2.647 2.647 0 001.076-2.14V.43H.011z"/><path id="y" d="M.01.43v49.012a2.68 2.68 0 002.68 2.681h33.208a2.61 2.61 0 001.604-.541 2.647 2.647 0 001.076-2.14V.43H.011z"/><path id="A" d="M.01.43v49.012a2.68 2.68 0 002.68 2.681h33.208a2.61 2.61 0 001.604-.541 2.647 2.647 0 001.076-2.14V.43H.011z"/><path id="C" d="M.01.43v49.012a2.68 2.68 0 002.68 2.681h33.208a2.61 2.61 0 001.604-.541 2.647 2.647 0 001.076-2.14V.43H.011z"/><path id="E" d="M.01.43v49.012a2.68 2.68 0 002.68 2.681h33.208a2.61 2.61 0 001.604-.541 2.647 2.647 0 001.076-2.14V.43H.011z"/><path id="G" d="M.01.43v49.012a2.68 2.68 0 002.68 2.681h33.208a2.61 2.61 0 001.604-.541 2.647 2.647 0 001.076-2.14V.43H.011z"/><path id="I" d="M.467.033h11.234V12.28H.467z"/></defs><g fill="none" fill-rule="evenodd"><path fill="#FFDADA" d="M43.628 7.153v49.012a2.65 2.65 0 01-1.076 2.14c-.44.34-.997.542-1.604.542H7.741a2.68 2.68 0 01-2.68-2.682V7.153h38.567z"/><g transform="translate(5.05 6.723)"><mask id="b" fill="#fff"><use xlink:href="#a"/></mask><path fill="#FEF3E1" d="M42.551 4.827L-2.14 49.55l1.211 1.212L43.762 6.038z" mask="url(#b)"/></g><g transform="translate(5.05 6.723)"><mask id="d" fill="#fff"><use xlink:href="#c"/></mask><path fill="#FEF3E1" d="M46.053 8.33L1.362 53.054l1.21 1.212L47.264 9.543z" mask="url(#d)"/></g><g transform="translate(5.05 6.723)"><mask id="f" fill="#fff"><use xlink:href="#e"/></mask><path fill="#FFF" d="M49.554 11.835L4.863 56.558l1.211 1.212 44.691-44.723z" mask="url(#f)"/></g><g transform="translate(5.05 6.723)"><mask id="h" fill="#fff"><use xlink:href="#g"/></mask><path fill="#FFF" d="M53.056 15.339L8.365 60.062l1.21 1.213 44.692-44.724z" mask="url(#h)"/></g><g transform="translate(5.05 6.723)"><mask id="j" fill="#fff"><use xlink:href="#i"/></mask><path fill="#FFF" d="M56.557 18.843L11.866 63.567l1.211 1.211 44.692-44.722z" mask="url(#j)"/></g><g transform="translate(5.05 6.723)"><mask id="l" fill="#fff"><use xlink:href="#k"/></mask><path fill="#FFF" d="M60.059 22.348L15.368 67.07l1.211 1.212 44.692-44.723z" mask="url(#l)"/></g><g transform="translate(5.05 6.723)"><mask id="n" fill="#fff"><use xlink:href="#m"/></mask><path fill="#FFF" d="M63.561 25.851L18.87 70.575l1.21 1.212 44.692-44.723z" mask="url(#n)"/></g><g transform="translate(5.05 6.723)"><mask id="p" fill="#fff"><use xlink:href="#o"/></mask><path fill="#FFF" d="M67.063 29.356L22.372 74.079l1.21 1.212 44.692-44.723z" mask="url(#p)"/></g><g transform="translate(5.05 6.723)"><mask id="r" fill="#fff"><use xlink:href="#q"/></mask><path fill="#FFF" d="M70.564 32.86L25.873 77.583l1.211 1.212 44.691-44.723z" mask="url(#r)"/></g><g transform="translate(5.05 6.723)"><mask id="t" fill="#fff"><use xlink:href="#s"/></mask><path fill="#FFF" d="M11.505-26.241l-44.691 44.723 1.211 1.212 44.692-44.723z" mask="url(#t)"/></g><g transform="translate(5.05 6.723)"><mask id="v" fill="#fff"><use xlink:href="#u"/></mask><path fill="#FFF" d="M15.007-22.737l-44.691 44.723 1.21 1.212 44.692-44.723z" mask="url(#v)"/></g><g transform="translate(5.05 6.723)"><mask id="x" fill="#fff"><use xlink:href="#w"/></mask><path fill="#FFF" d="M18.509-19.233l-44.691 44.724 1.21 1.211L19.72-18.021z" mask="url(#x)"/></g><g transform="translate(5.05 6.723)"><mask id="z" fill="#fff"><use xlink:href="#y"/></mask><path fill="#FFF" d="M22.01-15.729l-44.691 44.723 1.211 1.212 44.691-44.723z" mask="url(#z)"/></g><g transform="translate(5.05 6.723)"><mask id="B" fill="#fff"><use xlink:href="#A"/></mask><path fill="#FFF" d="M25.512-12.225l-44.691 44.723 1.211 1.213 44.691-44.723z" mask="url(#B)"/></g><g transform="translate(5.05 6.723)"><mask id="D" fill="#fff"><use xlink:href="#C"/></mask><path fill="#FFF" d="M29.014-8.72l-44.692 44.723 1.211 1.212L30.225-7.508z" mask="url(#D)"/></g><g transform="translate(5.05 6.723)"><mask id="F" fill="#fff"><use xlink:href="#E"/></mask><path fill="#FFF" d="M32.515-5.217l-44.691 44.724 1.211 1.212L33.727-4.004z" mask="url(#F)"/></g><g transform="translate(5.05 6.723)"><mask id="H" fill="#fff"><use xlink:href="#G"/></mask><path fill="#FFF" d="M36.017-1.712L-8.674 43.011l1.21 1.212L37.228-.5z" mask="url(#H)"/></g><path d="M43.391 9.901L2.722 49.734l1.211 1.212 40.669-39.833z" fill="#FFF"/><path fill="#F76B6D" d="M4.243 53.792l-.144-.535a4.333 4.333 0 00-3.056-3.06l-.374-.1c-.69-.187-.677-1.167.017-1.335l.138-.033a4.332 4.332 0 003.137-2.987l.212-.718c.197-.673 1.159-.655 1.332.024l.1.39a4.331 4.331 0 003.023 3.095l.547.154c.682.192.666 1.162-.022 1.331l-.236.058a4.332 4.332 0 00-3.128 2.994l-.215.737c-.195.67-1.151.66-1.331-.015m44.681-41.06l-.069-.256a2.06 2.06 0 00-1.456-1.456l-.179-.05c-.328-.088-.322-.555.009-.635l.066-.016a2.062 2.062 0 001.494-1.423l.101-.342c.094-.32.553-.312.635.01l.048.187c.182.713.73 1.275 1.44 1.474l.261.075c.325.09.317.553-.01.635l-.113.027a2.064 2.064 0 00-1.49 1.426l-.103.352c-.093.318-.549.313-.634-.008"/><path fill="#FFA8A9" d="M43.838 7.169H4.688a1.444 1.444 0 01-1.444-1.445V1.733c0-.8.646-1.446 1.443-1.446h39.15c.797 0 1.444.647 1.444 1.446v3.99c0 .799-.647 1.446-1.443 1.446"/><path fill="#EDABAB" d="M61.553 35.757H25.66a2.677 2.677 0 01-2.673-2.68v-3.666a2.675 2.675 0 012.673-2.678h35.894a2.676 2.676 0 012.673 2.678v3.667a2.676 2.676 0 01-2.673 2.678"/><path fill="#FFDADA" d="M61.196 35.758v21.207c0 .614-.294 1.161-.755 1.501-.31.239-.7.38-1.126.38H27.898a1.88 1.88 0 01-1.88-1.881V35.758h35.178z"/><path fill="#F76B6D" d="M54.27 20.509c-1.076 2.474-5.236 5.05-9.522 5.211.525-3.934 3.1-7.165 5.512-8.14a3.933 3.933 0 011.473-.31c.813 0 1.552.314 2.206.942.232.224.938.902.332 2.297m-21.33 0c-.606-1.395.1-2.073.332-2.297.655-.628 1.393-.942 2.206-.942.467 0 .959.102 1.474.31 2.411.975 4.986 4.206 5.51 8.14-4.285-.16-8.445-2.738-9.521-5.21m22.378-3.738c-1.601-1.538-3.664-1.909-5.807-1.042-2.544 1.028-4.724 3.554-5.907 6.563-1.183-3.009-3.362-5.535-5.907-6.563-2.143-.866-4.206-.494-5.807 1.042-1.233 1.185-1.517 2.838-.78 4.534 1.247 2.865 5.359 5.738 10.07 6.31-1.19.832-2.908 1.688-4.96 1.688a.997.997 0 00.001 1.996c3.56 0 6.218-1.982 7.47-3.14 1.252 1.158 3.91 3.14 7.469 3.14a.998.998 0 100-1.996c-2.064 0-3.791-.867-4.982-1.704 4.649-.615 8.686-3.46 9.92-6.294.737-1.696.453-3.349-.78-4.534"/><path fill="#FFF" d="M48.806 46.518a.519.519 0 01-.635.377.521.521 0 01-.376-.643.982.982 0 00-.708-1.187.988.988 0 00-1.192.694.526.526 0 01-1.018-.259 2.03 2.03 0 012.477-1.439 2.014 2.014 0 011.452 2.457m-2.405 3.399c-.65 1.54-2.362 2.407-4.038 1.974a3.424 3.424 0 01-2.557-3.687c.029-.26.296-.427.549-.362l5.75 1.497c.252.065.397.34.296.578m-7.036-5.855a2.037 2.037 0 012.478-1.439 2.028 2.028 0 011.459 2.466.52.52 0 01-.643.368.52.52 0 01-.376-.636.98.98 0 00-1.9-.491.519.519 0 01-.635.375.531.531 0 01-.383-.643m7.18-4.337c-4.117-1.07-8.314 1.388-9.39 5.486-1.07 4.099 1.393 8.291 5.504 9.355 4.11 1.069 8.314-1.38 9.39-5.488 1.07-4.098-1.394-8.284-5.504-9.353m-20.961-.862l-.1-.373a3.016 3.016 0 00-2.128-2.13l-.261-.07c-.48-.13-.472-.813.012-.93l.096-.023a3.016 3.016 0 002.185-2.08l.147-.5c.138-.468.807-.456.928.016l.07.273a3.02 3.02 0 002.105 2.155l.38.107c.476.134.465.81-.015.927l-.164.04a3.02 3.02 0 00-2.179 2.085l-.149.514c-.136.466-.802.458-.927-.011"/><path fill="#F76B6D" d="M69.37 22.371a20.571 20.571 0 00-8.578 9.968c-.185.455-.792.548-1.062.138a7.715 7.715 0 01-1.271-4.268c0-4.265 3.392-7.719 7.573-7.719 1.193 0 2.325.283 3.33.788.435.218.428.845.008 1.093"/><g transform="translate(88.736 20.458)"><mask id="J" fill="#fff"><use xlink:href="#I"/></mask><path fill="#F76B6D" d="M11.701 7.75a7.717 7.717 0 01-1.273 4.27c-.269.409-.876.317-1.06-.139A20.555 20.555 0 00.783 1.92C.365 1.672.357 1.047.79.827A7.351 7.351 0 014.127.033C8.309.033 11.7 3.486 11.7 7.75" mask="url(#J)"/></g><path fill="#F76B6D" d="M62.91 58.847c-.42 0-.84-.147-1.183-.446a1.87 1.87 0 01-.192-2.605l3.924-4.642a1.794 1.794 0 012.558-.195 1.87 1.87 0 01.192 2.604l-3.924 4.642a1.798 1.798 0 01-1.376.642m33.073 0a1.799 1.799 0 01-1.377-.642l-3.923-4.642a1.868 1.868 0 01.192-2.604 1.794 1.794 0 012.558.195l3.924 4.642a1.87 1.87 0 01-.192 2.605c-.343.3-.763.446-1.182.446"/><path fill="#FFC600" d="M97.805 40.161c0 10.32-8.22 18.686-18.36 18.686-10.14 0-18.36-8.366-18.36-18.686s8.22-18.687 18.36-18.687c10.14 0 18.36 8.367 18.36 18.687"/><path fill="#F76B6D" d="M97.805 40.161c0 10.32-8.22 18.686-18.36 18.686-10.14 0-18.36-8.366-18.36-18.686s8.22-18.687 18.36-18.687c10.14 0 18.36 8.367 18.36 18.687"/><path fill="#FFDADA" d="M94.35 40.161c0 8.378-6.673 15.17-14.905 15.17S64.54 48.538 64.54 40.16c0-8.379 6.673-15.17 14.905-15.17S94.35 31.781 94.35 40.16"/><path stroke="#FF7C78" stroke-linecap="round" stroke-linejoin="round" stroke-width="2.169" d="M85.773 42.456h-6.917l-4.007-8.974"/></g></svg>