<svg xmlns="http://www.w3.org/2000/svg" xmlns:xlink="http://www.w3.org/1999/xlink" width="90" height="90"><defs><path id="a" d="M0 .41h85.634V48H0z"/><path id="c" d="M0 .41h24.862v15.466H0z"/></defs><g fill="none" fill-rule="evenodd"><path fill="#F3F6FA" d="M80.763 33.988c3.365 2.582 3.99 6.715 2.74 10.893-1.321 4.42-6.005 2.785-9.37.203-3.365-2.581-4.057-6.375-3.393-10.688.692-4.499 6.659-2.99 10.023-.409M85.4 77.603C81.792 89.87 64.72 90 46.362 90h-.84c-15.292 0-28.826-3.318-37.08-11.664C3.548 73.4.514 66.693.06 57.875.02 57.11 0 56.327 0 55.533c0-1.41.03-2.776.1-4.073 1.134-22.261 11.603-29.19 20.282-29.19 4.014 0 7.652.493 10.963 1.338a41.077 41.077 0 015.3 1.74c12.85 5.229 20.057 15.756 25.86 20.582 2.194 1.83 4.981 3.85 7.858 6.073 5.536 4.263 11.428 9.26 14.126 15.073.495 1.055.88 2.14 1.138 3.247.533 2.302.523 4.736-.228 7.28"/><path fill="#FF7C78" d="M38.467 62.692c-8.448-6.4-15.514-14.8-15.514-23.33 0-9.588 6.485-17.362 14.48-17.362 4.595 0 8.565 3.208 10.437 7.857a1.225 1.225 0 002.293 0C52.036 25.208 56.006 22 60.599 22c4.675 0 8.829 2.652 11.476 6.774 1.889 2.932 3.005 6.603 3.005 10.587 0 11.847-13.632 23.435-25.646 29.79a.883.883 0 01-.835 0 74.083 74.083 0 01-10.132-6.46"/><path fill="#F96A6A" d="M42.535 62.692c-5.189-6.4-9.531-14.8-9.531-23.33 0-8.366 3.034-15.351 7.071-16.994A9.76 9.76 0 0037.433 22c-7.996 0-14.48 7.773-14.48 17.36 0 8.532 7.066 16.93 15.513 23.33a73.881 73.881 0 009.56 6.155c.133.073.253-.112.14-.214a50.719 50.719 0 01-5.631-5.94"/><path fill="#FFC894" d="M63.205 70.637l5.136-10.862c1.047-2.218 3.599-3.227 5.836-2.322l.033.014c2.36.975 3.49 3.719 2.52 6.116l-1.053 2.61-12.473 4.444z"/><g transform="translate(0 42)"><mask id="b" fill="#fff"><use xlink:href="#a"/></mask><path fill="#FFD5AD" d="M85.628 28.322c.108 2.384-1.236 4.686-3.53 5.661L51.672 46.914A13.556 13.556 0 0146.363 48h-.05c-1.443 0-2.886-.232-4.27-.704L10.419 36.677a6.36 6.36 0 00-1.977-.34C3.549 31.398.514 24.691.06 15.874.02 15.11 0 14.326 0 13.532c0-1.408.03-2.775.099-4.072l8.808-5.973c4.27-2.895 9.579-3.852 14.482-2.423.287.08.573.17.85.271.208.07.415.141.623.231l9.292 3.63 18.615 7.27a4.836 4.836 0 012.698 2.634 4.983 4.983 0 01-.06 4.033c-1.067 2.302-3.775 3.307-6.138 2.483l-8.215-2.866h-.01l-8.194-2.856h-.011l-1.067-.372a4.36 4.36 0 00-3.213.131 4.52 4.52 0 00-2.55 3.007c-.593 2.302.642 4.675 2.847 5.46l20.294 7.228a8.35 8.35 0 005.576 0l8.66-3.086 12.435-4.434 2.165-.775c2.422-.864 5.042.021 6.505 2.022.277.361.504.754.682 1.185 0 .011.01.031.01.041.267.664.415 1.337.445 2.021" mask="url(#b)"/></g><g transform="translate(0 42)"><mask id="d" fill="#fff"><use xlink:href="#c"/></mask><path fill="#FFC894" d="M24.862 1.567s-.455.12-1.255.362C19.583 3.166 6.85 7.579.06 15.876.02 15.11 0 14.326 0 13.533c0-1.408.03-2.776.099-4.072l8.808-5.973c4.27-2.896 9.579-3.852 14.482-2.423.287.08.574.17.85.27.208.07.415.142.623.232" mask="url(#d)"/></g></g></svg>