<svg xmlns="http://www.w3.org/2000/svg" xmlns:xlink="http://www.w3.org/1999/xlink" width="90" height="90"><defs><path id="a" d="M0 .646h87V68H0z"/><path id="c" d="M.027.62h51.132V22H.027z"/><path id="e" d="M.492.62h13.781V22H.492z"/></defs><g fill="none" fill-rule="evenodd"><path fill="#F3F6FA" d="M77.671 33.83c3.403 2.569 4.036 6.68 2.772 10.834-1.336 4.395-6.075 2.77-9.479.203-3.404-2.567-4.105-6.34-3.433-10.63.701-4.473 6.736-2.973 10.14-.406"/><g transform="translate(0 22)"><mask id="b" fill="#fff"><use xlink:href="#a"/></mask><path fill="#F3F6FA" d="M86.394 55.672C82.676 68.068 64.945 68 46.049 68 20.614 68 0 59.075 0 33.72 0 8.36 11.32.645 20.616.645c24.024 0 34.637 16.994 42.613 23.528 8.866 7.264 27.343 17.57 23.165 31.498" mask="url(#b)"/></g><path fill="#BBDFF0" d="M58.091 42.796c0-.513.422-.91.937-.91h8.223v1.844h-8.223a.932.932 0 01-.937-.934m3.872 8.449c0-.514.41-.923.937-.923h4.35v1.856H62.9a.925.925 0 01-.937-.933m-2.935 7.525h8.223v1.856h-8.223a.94.94 0 01-.937-.933c0-.501.423-.923.937-.923m3.872 8.448h4.351v1.856H62.9a.932.932 0 01-.937-.933c0-.5.412-.923.937-.923"/><path fill="#DFEFF8" d="M45.563 33.234c0 .546.444.979.993.979h3.347v37.832c0 4.782 3.906 8.653 8.69 8.653 4.706 0 8.543-3.746 8.657-8.426.013-.08.013-.147.013-.227v-2.97h-4.364a.933.933 0 01-.937-.934c0-.501.412-.923.938-.923h4.363v-6.591h-8.236a.939.939 0 01-.935-.934c0-.501.422-.923.936-.923h8.235v-6.592h-4.364a.925.925 0 01-.937-.933c0-.513.412-.923.938-.923h4.363V43.73h-8.236a.93.93 0 01-.935-.933.92.92 0 01.936-.912h8.235v-7.672h3.346c.57 0 1.005-.433 1.005-.98a.997.997 0 00-1.005-1.001H46.557c-.55 0-.995.455-.995 1.002"/><path fill="#BBDFF0" d="M53.623 72.045V34.21h-3.725v37.836c0 4.782 3.91 8.652 8.698 8.652.416 0 .822-.028 1.229-.083-4.224-.58-6.202-4.193-6.202-8.569m-4.25-39.817h-2.822c-.544 0-.989.46-.989 1.004s.445.976.99.976h2.822c-.546 0-.697-.432-.697-.976s.151-1.004.697-1.004m14.65-4.307c0 .73-.595 1.323-1.328 1.323-.734 0-1.328-.593-1.328-1.323s.594-1.324 1.328-1.324c.733 0 1.328.593 1.328 1.324"/><path fill="#DFEFF8" d="M58.373 22.354a2.54 2.54 0 01-2.543 2.535 2.539 2.539 0 01-2.543-2.535c0-1.4 1.138-2.535 2.543-2.535a2.54 2.54 0 012.543 2.535m1.997 59.82L45.908 59.117a19.517 19.517 0 01-2.986-10.373V37.715c0-.635-.516-1.15-1.154-1.15H23.884c-.638 0-1.155.515-1.155 1.15v11.03c0 3.668-1.034 7.262-2.985 10.372L5.28 82.174c-2.136 3.404.32 7.821 4.347 7.821h46.397c4.028 0 6.483-4.417 4.347-7.82"/><path fill="#BBDFF0" d="M28.43 36.559c-.638 0-1.162.521-1.162 1.157v11.025c0 3.67-.029 7.273-1.976 10.372l-7.017 11.171c-1.522-.538-2.127-1.648-4.483-1.663l5.955-9.508a19.71 19.71 0 002.552-6.295c.278-1.337.425-2.707.425-4.077V37.716c0-.163.033-.309.098-.456a1.41 1.41 0 01.246-.359c.212-.212.49-.342.818-.342h4.544z"/><g transform="translate(10 68)"><mask id="d" fill="#fff"><use xlink:href="#c"/></mask><path fill="#00C9EF" d="M46.024 22H5.161c-4.024 0-6.478-4.42-4.35-7.828L8.268 2.283c.491.196 1.096.31 1.881.31.507 0 .95-.049 1.31-.13h.015C13.438 2.023 13.863.62 16.563.62c3.206 0 3.206 1.973 6.428 1.973 3.207 0 3.207-1.973 6.43-1.973 3.206 0 3.206 1.973 6.412 1.973 3.091 0 3.222-1.81 6.052-1.957l8.49 13.536C52.502 17.58 50.048 22 46.025 22" mask="url(#d)"/></g><g transform="translate(4 68)"><mask id="f" fill="#fff"><use xlink:href="#e"/></mask><path fill="#00B8E3" d="M11.165 22H5.62c-4.025 0-6.478-4.42-4.335-7.828L9.774.62h.017c2.355.016 2.96 1.125 4.482 1.663l-7.46 11.89C4.687 17.58 7.14 22 11.165 22" mask="url(#f)"/></g><path fill="#00B8E3" d="M40.106 73.298c1.28 0 2.318 1.035 2.318 2.311s-1.038 2.311-2.318 2.311-2.318-1.035-2.318-2.31a2.315 2.315 0 012.318-2.312"/><path fill="#00C9EF" d="M33.838 61.615c1.11 0 2.008.896 2.008 2.002 0 1.105-.899 2.002-2.008 2.002s-2.008-.897-2.008-2.002c0-1.106.9-2.002 2.008-2.002m3.366-4.097c.46 0 .834.372.834.832a.833.833 0 01-.834.831.833.833 0 01-.834-.831c0-.46.374-.832.834-.832"/><path fill="#00B8E3" d="M37.801 80.344c.777 0 1.408.63 1.408 1.403 0 .776-.63 1.404-1.408 1.404a1.406 1.406 0 01-1.408-1.404c0-.774.631-1.403 1.408-1.403M33.106 33.53c-3.24-7.113 3.515-7.258 2.887-13.641 4.017 6.634-2.385 8.386-2.887 13.642m-5.235-2.753c3.942-12.245-5.169-12.76-4.82-22.777-6.709 11.075 3.982 14 4.82 22.777"/></g></svg>