<svg xmlns="http://www.w3.org/2000/svg" width="24" height="24"><path fill="#FFF" d="M16.304 16.912c.774 0 1.402.627 1.402 1.401v.64a.532.532 0 01-.532.532H7.218a.532.532 0 01-.532-.532v-.64c0-.774.628-1.401 1.402-1.401h8.216zM12.194 4c3.42 0 6.198 2.737 6.198 6.099a6.045 6.045 0 01-2.274 4.717 6.22 6.22 0 01-3.924 1.382 6.21 6.21 0 01-3.923-1.382C6.887 13.696 6 12 6 10.1 6 6.737 8.778 4 12.194 4zm1.881 7.27h-3.842c-.245 0-.44.22-.391.455.215 1.062 1.168 1.863 2.312 1.863s2.097-.8 2.312-1.863c.048-.236-.146-.455-.39-.455zm-4.032-2.992c-.773 0-1.444.543-1.595 1.291a.478.478 0 00.936.19c.062-.305.339-.525.659-.525s.597.22.659.525a.477.477 0 10.936-.19 1.625 1.625 0 00-1.595-1.29zm4.476 0c-.773 0-1.444.543-1.595 1.291a.478.478 0 00.936.19.668.668 0 01.66-.525c.32 0 .596.22.658.525a.478.478 0 00.936-.19 1.625 1.625 0 00-1.595-1.29z"/></svg>