<svg xmlns="http://www.w3.org/2000/svg" xmlns:xlink="http://www.w3.org/1999/xlink" width="50" height="50"><defs><path id="a" d="M0 .001h46V46H0z"/></defs><g fill="none" fill-rule="evenodd"><g transform="translate(2 2)"><mask id="b" fill="#fff"><use xlink:href="#a"/></mask><path fill="#3EC29E" d="M44.263 24.909c-.822-1.052-.822-2.757 0-3.81l1.248-1.578c.854-1.018.558-2.366-.656-2.955l-1.84-.889c-1.216-.557-2.003-2.101-1.676-3.415l.429-1.906c.293-1.314-.593-2.364-1.938-2.398h-2.07c-1.346 0-2.694-1.084-3.022-2.366l-.46-1.97c-.327-1.282-1.575-1.874-2.826-1.313l-1.84.853c-1.216.593-2.92.196-3.743-.822L24.555.765c-.854-1.018-2.234-1.018-3.088 0L20.153 2.34c-.822 1.018-2.53 1.415-3.777.823l-1.84-.854c-1.216-.561-2.496.031-2.792 1.313l-.46 1.97c-.328 1.282-1.676 2.366-3.022 2.366H6.161c-1.314.034-2.202 1.084-1.906 2.398l.425 1.906c.33 1.314-.457 2.858-1.673 3.415l-1.84.889c-1.216.59-1.544 1.938-.69 2.955L1.759 21.1c.82 1.052.82 2.757 0 3.809L.477 26.453c-.854 1.052-.526 2.366.69 2.955l1.84.889c1.216.592 2.004 2.136 1.673 3.418l-.425 1.97c-.296 1.282.592 2.366 1.906 2.366l2.101.031c1.346 0 2.694 1.02 3.022 2.335l.46 1.935c.296 1.282 1.576 1.906 2.792 1.316l1.84-.853c1.247-.561 2.955-.199 3.777.853l1.314 1.544c.854 1.05 2.234 1.05 3.088 0l1.314-1.544c.822-1.052 2.527-1.414 3.743-.853l1.84.853c1.25.59 2.499-.034 2.826-1.316l.46-1.935c.328-1.314 1.676-2.335 3.022-2.335l2.07-.031c1.345 0 2.231-1.084 1.938-2.367l-.429-1.969c-.327-1.282.46-2.826 1.676-3.418l1.84-.889c1.214-.589 1.51-1.903.656-2.955l-1.248-1.544z" mask="url(#b)"/></g><path fill="#3CCFA6" d="M40.85 26.423c-.612-.782-.612-2.055 0-2.84l.932-1.176c.635-.759.417-1.762-.492-2.205l-1.368-.661c-.909-.414-1.495-1.564-1.251-2.545l.319-1.42c.221-.98-.44-1.765-1.443-1.788h-1.544c-1.003 0-2.01-.808-2.254-1.763l-.342-1.472c-.245-.954-1.176-1.394-2.105-.977l-1.371.635c-.906.443-2.18.147-2.795-.612l-.977-1.176c-.638-.756-1.665-.756-2.303 0l-.977 1.176c-.613.759-1.886 1.055-2.815.612l-1.374-.635c-.906-.417-1.86.023-2.082.977l-.342 1.472c-.244.955-1.248 1.763-2.251 1.763h-1.567c-.98.023-1.642.808-1.423 1.788l.319 1.42c.244.98-.342 2.13-1.248 2.545l-1.371.66c-.906.444-1.15 1.447-.515 2.206l.955 1.176c.612.785.612 2.058 0 2.84l-.955 1.15c-.635.785-.39 1.766.515 2.206l1.371.66c.906.44 1.492 1.594 1.248 2.548l-.32 1.47c-.218.954.444 1.762 1.424 1.762l1.567.025c1.003 0 2.007.76 2.251 1.74l.342 1.443c.222.955 1.176 1.42 2.082.98l1.374-.638c.929-.414 2.202-.146 2.815.638l.977 1.15c.638.785 1.665.785 2.303 0l.977-1.15c.616-.784 1.89-1.052 2.795-.638l1.371.638c.929.44 1.86-.025 2.105-.98l.342-1.443c.244-.98 1.25-1.74 2.254-1.74l1.544-.025c1.003 0 1.664-.808 1.443-1.763l-.32-1.469c-.243-.954.343-2.107 1.252-2.547l1.368-.661c.909-.44 1.127-1.42.492-2.206l-.932-1.15z"/><path fill="#FFF" d="M31.811 32.648c-1.072 1.05-2.84 1.05-3.933 0a2.702 2.702 0 010-3.847c1.093-1.07 2.86-1.07 3.933 0a2.667 2.667 0 010 3.847m-9.727-11.454c-1.072 1.05-2.817 1.05-3.913 0-1.07-1.072-1.07-2.777 0-3.827 1.096-1.072 2.84-1.072 3.913 0 1.093 1.05 1.093 2.755 0 3.827m8.546-2.012L21.824 32.65c-.307.48-.877.742-1.4.742-.307 0-.635-.087-.92-.262a1.608 1.608 0 01-.5-2.251l8.809-13.423a1.651 1.651 0 012.294-.5 1.59 1.59 0 01.523 2.227"/></g></svg>