<svg xmlns="http://www.w3.org/2000/svg" xmlns:xlink="http://www.w3.org/1999/xlink" width="150" height="110"><defs><path id="a" d="M0 .362h149.749v74.027H0z"/><path id="c" d="M.097.322h104.308v19.957H.097z"/><path id="e" d="M0 110.142h149.749V.464H0z"/></defs><g fill="none" fill-rule="evenodd" transform="translate(0 .536)"><g transform="translate(0 35.417)"><mask id="b" fill="#fff"><use xlink:href="#a"/></mask><path fill="#FCF9F3" d="M149.657 74.39H2.629c-5.65-8.128-1.154-18.612 3.734-23.226 3.143-2.961 7.92-6.187 10.094-9.923 2.349-4.052 1.504-9.102 1.569-13.794.088-6.169 2.021-12.472 6.203-16.988a18.57 18.57 0 017.514-4.892h.004c.065-.023.125-.046.19-.065a17.026 17.026 0 013.346-.747c1.887-.213 3.803-.097 5.649.423 3.674 1.035 6.91 3.508 10.51 4.6.807.245 1.633.417 2.487.491 5.363.46 10.09-3.16 14.71-5.927 5.325-3.193 12-5.44 17.635-2.85 6.775 3.12 8.921 11.464 12.65 17.972.042.079.088.153.13.227a31.058 31.058 0 004.047 5.468c.319.352.651.7.988 1.03.425.427.858.835 1.301 1.23a32.573 32.573 0 007.635 5.105 31.312 31.312 0 008.164 2.655c5.201.924 11.321.92 14.561 5.11 3.217 4.159 1.777 10.258 3.564 15.205 1.269 3.51 4.061 6.192 6.433 9.065 2.373 2.873 4.473 6.14 3.91 9.83" mask="url(#b)"/></g><g transform="translate(16.615 .142)"><mask id="d" fill="#fff"><use xlink:href="#c"/></mask><path fill="#FFC501" d="M94.482 20.28H10.02c-5.48 0-9.923-4.468-9.923-9.98C.097 4.79 4.54.322 10.02.322h84.462c5.48 0 9.923 4.467 9.923 9.978 0 5.512-4.443 9.98-9.923 9.98" mask="url(#d)"/></g><path fill="#FFF" d="M55.585 9.217a.554.554 0 00-.477-.383l-3.006-.274-1.188-2.798a.553.553 0 00-1.018.001l-1.19 2.797-3.006.274a.557.557 0 00-.314.975l2.272 2.004-.67 2.968a.559.559 0 00.54.681.55.55 0 00.284-.08l2.592-1.558 2.593 1.558c.19.115.429.104.608-.027a.557.557 0 00.216-.574l-.67-2.968 2.272-2.004a.56.56 0 00.162-.592m-18.461 0a.557.557 0 00-.477-.383L33.64 8.56l-1.189-2.798a.554.554 0 00-.51-.338c-.22 0-.42.133-.508.339L30.245 8.56l-3.006.274a.559.559 0 00-.314.975l2.272 2.004-.67 2.968a.556.556 0 00.539.681.547.547 0 00.284-.08l2.593-1.558 2.592 1.558a.55.55 0 00.609-.027.556.556 0 00.215-.574l-.67-2.968 2.272-2.004a.561.561 0 00.163-.592m36.923 0a.556.556 0 00-.477-.383l-3.006-.274-1.189-2.798a.554.554 0 00-.509-.338.554.554 0 00-.509.339L67.168 8.56l-3.006.274a.559.559 0 00-.314.975l2.272 2.004-.67 2.968a.556.556 0 00.539.681.547.547 0 00.284-.08l2.593-1.558 2.592 1.558a.55.55 0 00.609-.027.556.556 0 00.215-.574l-.67-2.968 2.272-2.004a.561.561 0 00.163-.592m18.461 0a.554.554 0 00-.476-.383l-3.006-.274-1.19-2.798a.552.552 0 00-1.018.001L85.63 8.56l-3.006.274a.556.556 0 00-.477.383.56.56 0 00.162.592l2.272 2.004-.67 2.968a.559.559 0 00.54.681.547.547 0 00.284-.08l2.593-1.558 2.592 1.558c.19.115.429.104.608-.027a.557.557 0 00.216-.574l-.67-2.968 2.272-2.004a.56.56 0 00.162-.592m18.462 0a.554.554 0 00-.477-.383l-3.006-.274-1.189-2.798a.554.554 0 00-.509-.338.555.555 0 00-.509.339l-1.188 2.797-3.007.274a.559.559 0 00-.314.975l2.272 2.004-.67 2.968a.556.556 0 00.539.681c.1 0 .196-.027.284-.08l2.593-1.558 2.593 1.558c.19.115.428.104.608-.027a.556.556 0 00.215-.574l-.67-2.968 2.272-2.004a.561.561 0 00.163-.592"/><path fill="#565A5B" d="M89.97 97.502c.57-5.248-1.034-22.6 1.274-34.203 2.307-11.603 13.033-8.033 13.033-8.033 10.615-2.785 11.546 24.365 10.615 40.844L89.97 97.502z"/><mask id="f" fill="#fff"><use xlink:href="#e"/></mask><path fill="#FEC5B5" d="M99.2 87.202h5.539v-8.355H99.2z" mask="url(#f)"/><path fill="#EF998B" d="M99.2 82.65c1.846 1.12 3.692 1.12 5.539 0v-3.803H99.2v3.803z" mask="url(#f)"/><path fill="#FEC5B5" d="M121.895 109.806H80.278c-.064-1.661-.06-4.163.286-6.734v-.014c.346-2.54 1.025-5.148 2.317-7.078a7.334 7.334 0 011.606-1.764c.019-.019.042-.033.065-.051l3.314-2 2.21-1.333 2.705-1.633 6.42-3.871.739-.446h3.997s.295.176.803.487c.927.567 2.57 1.583 4.435 2.804 1.906 1.248 4.043 2.706 5.89 4.112v.005c.087.065.175.13.258.195 1.094.844 2.072 1.661 2.829 2.404.07.065.134.134.198.2.328.329.6.645.817.932 2.068 2.771 2.59 10.197 2.728 13.785" mask="url(#f)"/><path fill="#EF998B" d="M106.936 72.35c0 1.153.93 2.088 2.077 2.088a2.083 2.083 0 002.077-2.089c0-1.153-.93-2.088-2.077-2.088a2.083 2.083 0 00-2.077 2.088m-13.846.001c0 1.153.93 2.088 2.077 2.088a2.083 2.083 0 002.077-2.089c0-1.153-.93-2.088-2.077-2.088a2.083 2.083 0 00-2.077 2.088" mask="url(#f)"/><path fill="#FEC5B5" d="M44.859 59.354l-.186 4.312-.275 6.363-2.77 3.713-2.307-2.321-.923-12.067z" mask="url(#f)"/><path fill="#31CEA3" d="M62.86 78.384v31.422H19.937V80.802a4.72 4.72 0 012.547-4.2l14.142-7.3.388-.2 1.384.928.863.622.383.274.102.07 1.283.928h.005l.489.352.106.075.499-.418 1.264-1.058 1.006-.845 3.231-.928 11.69 7.124 3.116 1.898.005.005.42.255z" mask="url(#f)"/><path fill="#EF998B" d="M62.446 64.78c0 1.154-.93 2.09-2.077 2.09a2.084 2.084 0 01-2.077-2.09c0-1.153.93-2.088 2.077-2.088 1.147 0 2.077.935 2.077 2.088m16.154-.464c0 1.154-.93 2.089-2.077 2.089a2.083 2.083 0 01-2.077-2.089c0-1.153.93-2.088 2.077-2.088 1.147 0 2.077.935 2.077 2.088" mask="url(#f)"/><path fill="#929B9B" d="M64.292 64.548s-9.23 10.211-2.769 15.317c6.462 5.105 8.77 11.14 8.77 11.14S84.6 74.758 74.445 67.796c-9.774-6.701-10.154-3.249-10.154-3.249" mask="url(#f)"/><path fill="#FEC5B5" d="M65.677 78.937h5.538v-9.283h-5.538z" mask="url(#f)"/><path fill="#EF998B" d="M71.215 73.831c-1.846 1.119-3.692 1.119-5.538 0v-4.177h5.538v4.177z" mask="url(#f)"/><path fill="#929B9B" d="M60.138 50.624s-7.846 5.106.923 12.532c8.77 7.426 3.231-12.996 3.231-12.996l-4.154.464z" mask="url(#f)"/><path fill="#FEC5B5" d="M68.446 72.903c-4.588 0-8.307-3.74-8.307-8.355V51.553h16.615v12.995c0 4.614-3.72 8.355-8.308 8.355" mask="url(#f)"/><path fill="#FFE2DC" d="M64.898 65.94h-3.98a1.243 1.243 0 01-1.241-1.247V61.62c0-.689.555-1.248 1.24-1.248h3.981c.685 0 1.24.559 1.24 1.248v3.074c0 .689-.555 1.248-1.24 1.248" mask="url(#f)"/><path stroke="#565A5B" stroke-width=".5" d="M64.898 65.94h-3.98a1.243 1.243 0 01-1.241-1.247V61.62c0-.689.555-1.248 1.24-1.248h3.981c.685 0 1.24.559 1.24 1.248v3.074c0 .689-.555 1.248-1.24 1.248z" mask="url(#f)"/><path fill="#FFE2DC" d="M75.513 65.94h-3.98a1.244 1.244 0 01-1.241-1.247V61.62c0-.689.556-1.248 1.24-1.248h3.981c.685 0 1.241.559 1.241 1.248v3.074c0 .689-.556 1.248-1.24 1.248" mask="url(#f)"/><path stroke="#565A5B" stroke-width=".5" d="M75.513 65.94h-3.98a1.244 1.244 0 01-1.241-1.247V61.62c0-.689.556-1.248 1.24-1.248h3.981c.685 0 1.241.559 1.241 1.248v3.074c0 .689-.556 1.248-1.24 1.248z" mask="url(#f)"/><path fill="#929B9B" d="M73.985 61.3c-5.208-1.455-9.271-3.856-12.176-6.387-2.084-1.816-4.462-4.688-3.055-7.073.69-1.17 3.519-2.205 5.077-1.857 4.154.928 12.461 1.392 13.846 6.034 1.193 4.001 4.615 11.603-3.692 9.282" mask="url(#f)"/><path fill="#EF998B" d="M44.739 63.156v-4.641l-6.462.928.5 4.873zm4.274-14.942a2.314 2.314 0 002.308 2.321 2.314 2.314 0 002.307-2.32 2.314 2.314 0 00-2.307-2.321 2.314 2.314 0 00-2.308 2.32m-19.385 0a2.314 2.314 0 002.308 2.321 2.315 2.315 0 002.308-2.32 2.315 2.315 0 00-2.308-2.321 2.314 2.314 0 00-2.308 2.32" mask="url(#f)"/><path fill="#565A5B" d="M51.32 44.694c-.23-.425 2.078-5.066 1.155-7.387-.924-2.32-2.77-4.177-5.077-3.713-2.308.464 3.692 7.426 3.692 7.426l.23 3.674zM34.475 34.058s-6.462 1.017-2.539 7.238c3.923 6.222 3.462-4.917 3.462-4.917s1.846-2.785-.923-2.32" mask="url(#f)"/><path fill="#FEC5B5" d="M102.09 80.472c4.206 0 7.615-3.429 7.615-7.658v-9.98h-15.23v9.98c0 4.23 3.409 7.658 7.615 7.658" mask="url(#f)"/><path fill="#FFF" d="M103.475 75.598h-3.693s1.846 3.713 3.693 0M66.48 68.494h3.692s-1.846 3.713-3.693 0" mask="url(#f)"/><path fill="#565A5B" d="M93.09 68.868c9.692.929 13.846-7.89 13.846-7.89.11-.143-12.351-1.071-12.351-1.071l-1.495 8.961z" mask="url(#f)"/><path fill="#31CEA3" d="M121.895 109.806H80.278c-.064-1.661-.06-4.163.286-6.734v-.014c.346-2.54 1.025-5.148 2.317-7.078a7.334 7.334 0 011.606-1.764c.019-.019.042-.033.065-.051l3.314-2 2.21-1.333 2.705-1.633c7.823 7.412 14.253 1.47 16.394-1.026 1.906 1.248 4.043 2.706 5.89 4.112.087.065.17.13.258.2 1.094.844 2.072 1.661 2.829 2.404.07.065.134.134.198.2.328.329.6.645.817.932 2.068 2.771 2.59 10.197 2.728 13.785" mask="url(#f)"/><path fill="#FEC5B5" d="M35.111 34.754s-3.175 1.857-3.175 4.642v12.463c0 1.518.27 3.03.848 4.428.763 1.845 2.153 3.96 4.596 4.459h7.257s3.396.316 5.604-4.004c.821-1.607 1.2-3.412 1.2-5.226V40.788s0-4.641-3.175-6.034c-3.175-1.392-13.155 0-13.155 0" mask="url(#f)"/><path fill="#249370" d="M41.869 109.806V71.998c0-.448-.692-.45-.692 0v37.808c0 .448.692.449.692 0M37.936 79.08c0 .64.517 1.16 1.154 1.16.637 0 1.154-.52 1.154-1.16 0-.642-.517-1.161-1.154-1.161-.637 0-1.154.52-1.154 1.16m0 12.532c0 .641.517 1.16 1.154 1.16.637 0 1.154-.519 1.154-1.16 0-.641-.517-1.16-1.154-1.16-.637 0-1.154.519-1.154 1.16m0 12.532c0 .64.517 1.16 1.154 1.16.637 0 1.154-.52 1.154-1.16 0-.641-.517-1.16-1.154-1.16-.637 0-1.154.519-1.154 1.16m-12.982 5.663V86.28c0-.448-.693-.449-.693 0v23.527c0 .448.693.449.693 0" mask="url(#f)"/><path fill="#565A5B" d="M41.398 60.746h-3.923c-2.476-.498-3.89-2.598-4.668-4.439-.594-1.404-.87-2.922-.87-4.448v-3.811c.303 1.878.836 5.013 1.153 5.968.461 1.392 3.23 1.392 3.23 1.392l.3-1.053a3.011 3.011 0 012.895-2.195h4.458c1.344 0 2.525.896 2.895 2.195l.299 1.053s2.77 0 3.23-1.392c.317-.955.85-4.09 1.154-5.968v3.811c0 1.526-.277 3.044-.87 4.448-.779 1.84-2.192 3.941-4.668 4.439h-4.615z" mask="url(#f)"/><path fill="#FFF" d="M38.628 54.337h6s-2.88 5.106-6 0" mask="url(#f)"/><path fill="#565A5B" d="M34.593 44.88l-.103.167.897.527a2.17 2.17 0 01.117-.237c.023-.038.047-.075.071-.111.052-.077-.075.082.03-.042a2.198 2.198 0 01.263-.261c-.062.051.064-.044.064-.044a2.11 2.11 0 01.205-.12c.023-.012.109-.052.044-.024a1.762 1.762 0 01.379-.109c.09-.017-.114.001.045-.005.044-.002.087-.006.132-.006.044 0 .087.003.132.005.031.001.075.008.019 0a1.756 1.756 0 01.38.102c.034.013.033.013-.002-.002l.048.023c.077.042.154.083.228.132.01.006.112.08.076.053a.943.943 0 00.07.06c.064.06.125.125.182.191.015.018.047.064.016.02a1.885 1.885 0 01.138.225c.007.016.065.149.033.07.104.26.348.444.639.363.248-.068.467-.378.363-.641-.372-.942-1.245-1.617-2.27-1.644-.956-.026-1.923.588-2.299 1.475-.109.26-.077.56.187.715a.525.525 0 00.71-.188l.103-.166c.147-.24.05-.575-.186-.715a.528.528 0 00-.711.188m10.154-.001l-.103.167.897.527a2.17 2.17 0 01.187-.348c.053-.077-.074.082.031-.042a2.198 2.198 0 01.263-.261 1.996 1.996 0 01.269-.164c.023-.012.109-.052.044-.024a1.762 1.762 0 01.379-.109c.089-.017-.114.001.045-.005.044-.002.087-.006.132-.006.044 0 .087.003.132.005.031.001.075.008.019 0a1.756 1.756 0 01.38.102c.034.013.033.013-.002-.002.016.008.031.016.048.023.077.042.154.083.228.132.01.006.112.08.076.053-.031-.025.07.062.069.06.065.06.125.125.183.191l.015.02a1.904 1.904 0 01.138.225c.008.016.066.149.034.07.103.26.348.444.639.363.248-.068.466-.378.363-.641-.372-.942-1.246-1.617-2.27-1.644-.956-.026-1.923.588-2.299 1.475-.11.26-.077.56.187.715a.525.525 0 00.71-.188l.103-.166c.147-.24.05-.575-.186-.715a.528.528 0 00-.711.188m19.676 18.541l.1.162a.34.34 0 00.46.122c.174-.102.193-.294.121-.464-.343-.812-1.214-1.376-2.092-1.352-.916.024-1.714.63-2.047 1.475-.067.17.073.372.235.417.192.053.347-.065.415-.236a1.602 1.602 0 011.448-.98c.647.003 1.212.432 1.46 1.018l.581-.342-.1-.162c-.227-.37-.81-.03-.581.342m10.615 0l.1.162a.34.34 0 00.46.122c.174-.102.193-.294.122-.464-.344-.812-1.214-1.376-2.093-1.352-.916.024-1.713.63-2.047 1.475-.067.17.074.372.236.417.192.053.347-.065.415-.236a1.6 1.6 0 011.447-.98c.647.003 1.212.432 1.46 1.018l.582-.342-.1-.162c-.227-.37-.81-.03-.582.342m28.988 7.548l-.1.163.583.341c.247-.586.812-1.015 1.459-1.017a1.6 1.6 0 011.448.979c.067.17.225.289.415.237.16-.045.302-.246.235-.417-.334-.845-1.13-1.452-2.047-1.476-.878-.024-1.75.54-2.092 1.353-.072.168-.05.363.12.463a.341.341 0 00.462-.122l.1-.162c.228-.371-.355-.712-.583-.342m-7.846 0l-.1.163.582.341c.248-.586.813-1.015 1.46-1.017a1.6 1.6 0 011.448.979c.067.17.225.289.415.237.16-.045.302-.246.234-.417-.333-.845-1.13-1.452-2.046-1.476-.878-.024-1.75.54-2.093 1.353-.07.168-.05.363.121.463a.34.34 0 00.461-.122c.034-.053.067-.107.1-.162.229-.371-.354-.712-.582-.342M49.244 33.13s-3.231 5.105-8.308 4.177c-5.077-.928-6.461-3.249-6.461-3.249s-.924-1.856 1.846-2.785c2.769-.928 14.769-.464 12.923 1.857" mask="url(#f)"/><path stroke="#565A5B" stroke-width=".5" d="M66.138 62.228h4.154" mask="url(#f)"/><path fill="#EF8A7F" d="M65.117 66.788c-.154.833-1.022 1.48-1.867 1.328-.111-.02-.226.03-.258.147-.028.103.034.24.146.26 1.056.19 2.185-.548 2.384-1.623.02-.112-.03-.228-.146-.26-.103-.028-.238.035-.259.148m5.061-.203c.494 1.237 2.004 1.941 3.254 1.445.248-.1.14-.508-.112-.407-1.018.404-2.322-.11-2.737-1.15-.042-.107-.14-.179-.258-.148-.1.027-.189.155-.147.26" mask="url(#f)"/><path fill="#FEC5B5" d="M89.098 109.806h-5.09l-.85-10.41-.037-.474-.004-.032-.07.125a10.867 10.867 0 01-1.569 2.093l-.083.084-.028.023v8.591H52.124v-8.781s.176-3.574.55-7.426c.013-.135.027-.27.036-.404.024-.21.042-.418.065-.622.05-.483.102-.961.157-1.434.31-2.6.706-5 1.205-6.169.041-.106.101-.218.17-.33.55-.941 1.787-2.074 3.273-3.206.124-.093.249-.186.374-.284.378-.283.766-.566 1.163-.844.004 0 .004 0 .009-.005.295-.204.59-.408.89-.608.194-.135.393-.27.591-.4.056-.036.116-.073.171-.11.406-.265.808-.525 1.196-.766.078-.051.156-.102.235-.149.078-.046.152-.093.23-.14.158-.101.315-.194.467-.291a104.426 104.426 0 011.924-1.147c.319-.186.605-.348.845-.483.577-.33.923-.52.923-.52l4.616.739 1.241.301c0-.004.005 0 .005 0l.969.232 2.063.497.526.125 1.579.38.05.015.545.13c1.412.283 2.677.78 3.78 1.457a16.693 16.693 0 01.785.529c.087.065.175.13.258.195.125.093.245.195.36.297.102.084.199.172.295.265.167.148.328.306.476.469.097.097.19.194.277.297.226.25.438.51.637.78.11.143.212.292.314.44.083.126.166.25.244.38.005.005.01.01.01.015l.078.12c.18.293.346.59.494.9.083.163.161.33.24.497.055.126.11.256.166.381.078.195.157.39.23.59.07.2.14.399.204.603.157.478.286.97.392 1.471.05.228.092.46.13.692.036.227.073.46.105.696l.056.469c.074.65.106 1.309.106 1.982l.037.533.697 9.984.535 7.658z" mask="url(#f)"/><path fill="#F76B6D" d="M83.684 89.616l-.023-.05-.004-.93.027.98zm4.182 2.548l-.037-.533-.005-.06a20.281 20.281 0 00-.101-1.922l-.056-.469a25.62 25.62 0 00-.106-.696c-.041-.228-.083-.46-.134-.683a15.589 15.589 0 00-.59-2.083c-.074-.2-.153-.395-.231-.59-.056-.125-.11-.255-.166-.38-.079-.168-.157-.335-.24-.497a12.364 12.364 0 00-.494-.9 2.056 2.056 0 00-.088-.135c-.078-.13-.161-.255-.244-.38a9.804 9.804 0 00-.314-.442 10.473 10.473 0 00-.914-1.076 6.816 6.816 0 00-.476-.47 5.245 5.245 0 00-.295-.264 5.459 5.459 0 00-.36-.297c-.083-.065-.17-.13-.258-.195a5.82 5.82 0 00-.323-.232c-.153-.102-.305-.204-.462-.297a11.34 11.34 0 00-3.84-1.485l-.48-.112-.05-.013c0 .004 0 .004-.005.009-.434 1.657-1.907 3.694-6.383 4.223h-.01c-7.837.924-8.298-4.348-8.298-4.348v-.005c-.152.093-.31.19-.47.292-.075.047-.149.093-.227.144a6.595 6.595 0 00-.235.149c-.388.241-.79.5-1.196.766-.055.037-.115.074-.17.11-.2.13-.398.265-.591.4-.3.2-.596.404-.891.608-.005.005-.005.005-.01.005-.396.278-.784.561-1.162.844-.125.098-.25.19-.374.284-.139.106-.277.213-.411.32l-.397.315c-1.02.85-1.86 1.671-2.354 2.395-.037.06-.074.116-.11.177-.07.111-.13.223-.171.33-.014.018-.023.041-.033.06-.489 1.16-.877 3.532-1.172 6.108-.055.473-.106.951-.157 1.434-.023.204-.041.413-.065.622-.009.134-.023.269-.036.404-.356 3.88-.522 7.495-.522 7.495l.005 1.513 4.749.075 5.954.097 12.355.195 2.608.042 2.741.042.803.014h.037l-.009-1.88v-.019c.028-.018.055-.042.083-.065a8.806 8.806 0 001.606-1.61l.074-.102c.01-.005.01-.01.014-.014l.35 3.225 5.04-.46.038-.004-.734-9.979z" mask="url(#f)"/><path fill="#DB4F5D" d="M56.965 97.155c-1.025-2.093-.267-4.465.667-6.436.191-.402-.405-.756-.597-.351-1.053 2.22-1.816 4.794-.668 7.138.197.402.794.05.598-.35" mask="url(#f)"/><path fill="#DB4F5D" d="M55.768 90.806l.722.786a.349.349 0 00.49 0 .36.36 0 000-.492l-.723-.787a.349.349 0 00-.49 0 .36.36 0 000 .493" mask="url(#f)"/><path fill="#565A5B" d="M103.354 61.764s2.77 5.105 7.846 6.497c5.077 1.393-1.384-7.89-1.384-7.89l-6.462 1.393z" mask="url(#f)"/><path fill="#249370" d="M115.101 109.806v-8.781c0-.448-.692-.45-.692 0v8.781c0 .448.692.449.692 0" mask="url(#f)"/><path fill="#D6A10D" d="M81.367 103.072v6.734h-9.563a649.063 649.063 0 002.197-5.152c0-.004.005-.004.005-.009l.664-1.573h6.697z" mask="url(#f)"/><path fill="#249370" d="M47.628 69.1l-3.23-3.446-1.385 4.839 2.308 2.321zm-8.768-3.239l1.384 4.632-2.308 2.32-1.384-3.713z" mask="url(#f)"/><path fill="#929B9B" d="M62.446 53.41s-1.385 4.64-3.23 5.105c-1.847.464.922-7.89.922-7.89l2.77.928-.462 1.856z" mask="url(#f)"/><path fill="#FFC501" d="M89.214 84.97l-1.782 2.822-.005.01-3 4.748-1.615 2.562-4.99 7.904-.036.056-4.25 6.734h-16.63v-11.84l5.954-6.572 4.694-5.18 3.65-4.028 4.288-4.73.337-.376s.77.093 1.948.344c3.369.719 10.066 2.729 11.437 7.546" mask="url(#f)"/><path fill="#D6A10D" d="M82.799 78.843a215.293 215.293 0 00-12.091 16.71c-.246.375.354.724.597.35a214.112 214.112 0 0111.984-16.567c.276-.346-.21-.842-.49-.493M67.703 93.31l9.556-11.517c.283-.342-.204-.837-.49-.492l-9.556 11.517c-.283.342.204.837.49.493M83.278 86.7a33.575 33.575 0 013.195-3.864c.31-.323-.18-.816-.49-.493a34.724 34.724 0 00-3.303 4.006c-.108.153-.027.388.124.477.174.102.365.028.474-.125m-4.481 10.944a218.347 218.347 0 00-7.98 10.97c-.253.372.347.72.598.352a215.286 215.286 0 017.872-10.83c.27-.349-.216-.845-.49-.492" mask="url(#f)"/><path fill="#DB4F5D" d="M82.6 96.433c.015 1.811.154 3.616.404 5.41.027.187.263.286.426.243.2-.053.268-.243.242-.428a40.231 40.231 0 01-.38-5.225c-.003-.448-.696-.449-.692 0" mask="url(#f)"/><path fill="#FFF" d="M65.212 77.387a.694.694 0 01-.763.617.694.694 0 01-.614-.766.692.692 0 111.377.149m1.384.928a.694.694 0 01-.762.618.698.698 0 01.148-1.385c.38.042.655.385.614.767m1.384.465a.692.692 0 11-1.376-.15.694.694 0 01.762-.618c.38.042.655.385.615.767m1.384.464a.693.693 0 01-.762.618.695.695 0 01-.614-.767.692.692 0 111.376.149m1.385-.463a.693.693 0 01-.762.617.697.697 0 01.148-1.385c.38.042.655.385.614.767m1.385-.464a.694.694 0 01-.763.618.696.696 0 01-.614-.767.692.692 0 111.377.149m1.385-.928a.694.694 0 01-.763.617.695.695 0 01.148-1.384c.38.041.655.384.614.767" mask="url(#f)"/><path fill="#249370" d="M22.944 87.442c.127.148.25.298.37.452.036.047-.025-.033.01.014l.043.056.084.114a11.011 11.011 0 01.786 1.241c.087.16.32.225.474.125a.357.357 0 00.124-.476 11.71 11.71 0 00-1.401-2.018c-.12-.138-.37-.132-.49 0a.358.358 0 000 .492" mask="url(#f)"/><path fill="#EF8A7F" d="M62.063 67.909c.361.384.85.613 1.371.669.11.012.215-.105.21-.211-.005-.125-.093-.199-.21-.211l-.039-.005c.022.003.016.003-.002 0l-.088-.016a1.802 1.802 0 01-.319-.094c-.004-.001-.04-.016-.02-.007.02.007-.017-.008-.02-.01a2.055 2.055 0 01-.357-.207c-.013-.01-.027-.018-.04-.029.018.014.008.006-.003-.003l-.06-.051a2.108 2.108 0 01-.126-.124c-.076-.08-.222-.082-.297 0a.216.216 0 000 .299" mask="url(#f)"/><path fill="#FFF" d="M60.247 50.753a16.651 16.651 0 004.827 5.75 15.79 15.79 0 003.35 1.935c1.196.505 2.506.815 3.772.387.255-.087.146-.495-.111-.408-1.343.455-2.724.006-3.958-.569a15.838 15.838 0 01-3.033-1.857 16.244 16.244 0 01-4.484-5.451c-.123-.242-.485-.029-.363.213" mask="url(#f)"/><path fill="#FFF" d="M60.897 49.108c1.018 2.775 3.065 5.106 5.69 6.446.24.123.452-.241.211-.364a11.413 11.413 0 01-5.496-6.194c-.093-.253-.5-.143-.405.112" mask="url(#f)"/><path fill="#249370" d="M42.892 70.582l-.767 1.352 1.444-1.211-.215-1.069zm-2.769-.464l1.616 2.089-2.308-.929z" mask="url(#f)"/></g></svg>