<svg xmlns="http://www.w3.org/2000/svg" xmlns:xlink="http://www.w3.org/1999/xlink" width="150" height="110"><defs><path id="a" d="M0 .43h149.538v74.221H0z"/><path id="c" d="M0 104.895h149.538V0H0z"/></defs><g fill="none" fill-rule="evenodd" transform="translate(0 5.105)"><g transform="translate(0 30.169)"><mask id="b" fill="#fff"><use xlink:href="#a"/></mask><path fill="#FFF2DC" d="M2.627 74.356C-3.016 66.24 1.472 55.77 6.354 51.162c3.137-2.958 7.91-6.176 10.078-9.911 2.348-4.045 1.504-9.09 1.569-13.772.085-6.163 2.017-12.457 6.195-16.967 4.178-4.51 10.775-6.93 16.678-5.273 4.495 1.263 8.329 4.686 12.979 5.085 5.355.459 10.073-3.155 14.69-5.922 5.316-3.186 11.98-5.43 17.608-2.842 6.845 3.148 8.96 11.64 12.762 18.172 4.68 8.04 12.983 13.85 22.106 15.47 5.193.921 11.306.915 14.542 5.102 3.21 4.153 1.772 10.24 3.559 15.184 1.266 3.504 4.056 6.182 6.423 9.052 2.367 2.87 4.466 6.426 3.903 10.111l-146.82-.295z" mask="url(#b)"/></g><path fill="#EF998B" d="M68.03 30.804l14.947 7.91s.956.396 2.753.396c1.307 0 1.18 1.583 1.18 1.583s-.87.083-1.573.79c-1.18 1.187-2.754-.79-2.754-.79l-10.62-4.351c-2.91-.336-5.123-1.33-3.933-5.538"/><path fill="#565A5B" d="M84.943 41.484l2.399 1.006.748-1.006-2.283-1.148a.536.536 0 00-.17-.054c-.374-.055-1.48.015-.694 1.202"/><path fill="#FEC5B5" d="M60.085 13.399l-1.888 4.352 5.067 2.166 2.013-4.935z"/><path fill="#929B9B" d="M77.47 80.644s-1.796 2.373-.505 5.142h5.618c.375.345 4.531-2.184 5.84-5.026.453-2.49-3.873 1.07-3.873 1.07l-3.54-1.581-3.54.395z"/><mask id="d" fill="#fff"><use xlink:href="#c"/></mask><path fill="#DBB08D" d="M14.931 46.626h17.307v-5.933H14.931z" mask="url(#d)"/><path fill="#C19571" d="M12.905 46.626h18.923v-5.933H12.905z" mask="url(#d)"/><path fill="#565A5B" d="M19.258 63.635l6.191 4.395a.587.587 0 00.831-.155l.13-.195a.596.596 0 00-.156-.817L21.77 63.74a.591.591 0 00-.336-.105h-2.175z" mask="url(#d)"/><path fill="#F76B6D" d="M18.33 73.524h2.501l-3.54 6.724h-2.74a.47.47 0 01-.392-.728l3.78-5.784a.467.467 0 01.39-.212" mask="url(#d)"/><path fill="#565A5B" d="M49.87 90.787c0 7.791-6.28 14.107-14.028 14.107s-14.029-6.316-14.029-14.107c0-7.792 6.28-14.108 14.029-14.108 7.747 0 14.028 6.316 14.028 14.108m72.015 0c0 7.791-6.28 14.107-14.028 14.107s-14.029-6.316-14.029-14.107c0-7.792 6.28-14.108 14.029-14.108 7.747 0 14.028 6.316 14.028 14.108" mask="url(#d)"/><path fill="#929B9B" d="M45.811 90.787c0 5.537-4.463 10.026-9.97 10.026-5.506 0-9.97-4.49-9.97-10.026 0-5.538 4.464-10.027 9.97-10.027 5.507 0 9.97 4.489 9.97 10.027m72.015 0c0 5.537-4.463 10.026-9.97 10.026-5.506 0-9.969-4.49-9.969-10.026 0-5.538 4.463-10.027 9.97-10.027 5.506 0 9.97 4.489 9.97 10.027" mask="url(#d)"/><path fill="#BDECFF" d="M97.136 43.462c0 2.184-1.76 3.955-3.933 3.955-2.172 0-3.933-1.77-3.933-3.955s1.76-3.956 3.933-3.956c2.172 0 3.933 1.77 3.933 3.956" mask="url(#d)"/><path fill="#FFC501" d="M67.54 63.635H38.234a2.463 2.463 0 01-2.456-2.47v-.202c0-1.364 1.1-2.47 2.456-2.47H67.54a2.464 2.464 0 012.457 2.47v.202c0 1.364-1.1 2.47-2.457 2.47" mask="url(#d)"/><path fill="#31CEA3" d="M29.484 63.635h36.988S52.69 69.57 61.343 83.017c0 0 2.36 2.77 6.294 2.77h15.34s8.26-3.165 8.653-16.614c0 0 1.573-1.583-6.294-21.36l1.574-6.33 1.18-.79v-1.978h5.9s.393 9.098 0 9.098h-3.934s14.947 20.173 12.98 24.92C101.069 77.48 90.45 89.742 90.45 89.742h-41.3s-8.653-9.494-8.653-8.702c0 .79-16.913 6.329-16.913 6.329l-5.9-.792-.786-1.977-1.574-3.165s7.867-13.845 14.16-17.8" mask="url(#d)"/><path fill="#DBB08D" d="M10.136 62.844h24.461v-17.8H10.136z" mask="url(#d)"/><path fill="#565A5B" d="M34.008 64.03H9.228a.591.591 0 01-.59-.593c0-.327.264-.593.59-.593h24.78a.593.593 0 010 1.187m47.534-18.137l5.388-3.404s2.34.576 1.16 2.554l-5.172 3.121a1.343 1.343 0 01-1.697-.243l-.03-.036c-.52-.614-.328-1.563.35-1.992" mask="url(#d)"/><path fill="#BDECFF" d="M86.91 29.815c0 2.076-.793 3.758-1.77 3.758-.978 0-1.77-1.682-1.77-3.758s.792-3.758 1.77-3.758c.977 0 1.77 1.682 1.77 3.758" mask="url(#d)"/><path fill="#565A5B" d="M18.078 84.995h-4.061c-.799 0-1.446-.65-1.446-1.453v-.654a1.45 1.45 0 011.446-1.453h4.06v3.56zm20.99 5.792a3.236 3.236 0 01-3.226 3.244 3.236 3.236 0 01-3.227-3.244 3.236 3.236 0 013.227-3.245 3.236 3.236 0 013.226 3.245" mask="url(#d)"/><path fill="#FFC501" d="M119.41 79.321c.857.09 1.444-.877.945-1.583-3.172-4.477-8.471-7.324-14.414-7.049-8.616.4-15.598 7.498-15.91 16.166a17 17 0 00.432 4.488 1.68 1.68 0 002.454 1.073c8.784-4.993 9.489-14.86 26.493-13.095" mask="url(#d)"/><path fill="#565A5B" d="M111.083 90.787a3.236 3.236 0 01-3.226 3.244 3.235 3.235 0 01-3.226-3.244 3.235 3.235 0 013.226-3.245 3.236 3.236 0 013.226 3.245" mask="url(#d)"/><path fill="#232828" d="M86.832 30.36c.81-.278 1.655.175 2.127.848.504.721.667 1.62.837 2.466a49.622 49.622 0 001.068 4.322c.078.261.15.935.43 1.065.116.054.23.043.326-.042l.034-.031a.264.264 0 00.07-.263l-.011-.035c-.104-.33-.623-.19-.519.144l.01.035.07-.263-.034.03.326-.043c.074.035-.028-.232-.036-.256-.042-.134-.082-.27-.123-.404-.08-.27-.16-.54-.235-.812a48.507 48.507 0 01-.427-1.636c-.246-1.017-.403-2.06-.68-3.07-.398-1.458-1.647-3.17-3.376-2.576-.326.112-.186.635.143.522" mask="url(#d)"/><path fill="#FFF" d="M21.473 54.4a.536.536 0 00-.759-.003c-.452.425-.895.861-1.337 1.294a.484.484 0 00-.14.47c.092.442.62.604.964.293.275-.253.537-.513.803-.777.082-.081.133-.098.224-.007.406.406.821.804 1.24 1.196.091.088.081.139-.011.22-.269.254-.538.514-.803.774a.519.519 0 00-.116.605.53.53 0 00.474.338c.197.003.333-.04.435-.146.45-.429.898-.855 1.337-1.294a.496.496 0 00-.003-.73 202.322 202.322 0 00-2.308-2.233" mask="url(#d)"/><path fill="#FFF" d="M25.326 55.079c-.146-.142-.289-.294-.445-.43-.106-.09-.13-.155-.038-.286.323-.47.473-1.004.48-1.575 0-.243-.034-.48-.085-.713-.575-2.22-3.397-3.028-5.095-1.453-.524.486-1.032.99-1.546 1.487-.48.466-.963.93-1.44 1.395a.522.522 0 00-.142.581c.078.224.248.338.48.369.2.023.367-.061.507-.203.943-.913 1.889-1.825 2.828-2.737.473-.463 1.032-.649 1.688-.581 1.015.111 1.784 1.08 1.644 2.071a1.881 1.881 0 01-.578 1.122c-.242.237-.269.551-.051.774.33.344.677.68 1.031 1 .225.203.579.172.786-.044.211-.226.204-.544-.024-.777" mask="url(#d)"/><path fill="#31CEA3" d="M43.199 46.326l17.358 3.465s.972-1.43 1.58-3.375l5.034-14.117s2.018-13.393-8.314-15.967a1.56 1.56 0 00-1.791.856L43.199 46.326z" mask="url(#d)"/><path fill="#565A5B" d="M45.027 46.593s-3.232 7.847.085 11.792l24.238.652 6.974 22.794 6.974-.877-6.974-24.547s-.872-4.383-6.974-6.137c-8.281-2.191-24.323-3.677-24.323-3.677" mask="url(#d)"/><path fill="#31CEA3" d="M74.955 8.447l-1.816 8.238c-.078.169-.154.327-.22.475a3.165 3.165 0 01-3.087 1.766 2.963 2.963 0 01-1.17-.328l-3.525-1.793-7.988-4.037a1.654 1.654 0 01-.86-1.56l.193-2.606c.287-3.877 3.537-7.69 7.206-8.42a9.57 9.57 0 017.779 1.861 9.34 9.34 0 013.488 6.404" mask="url(#d)"/><path fill="#565A5B" d="M60.69 10.897a2.177 2.177 0 01-1.999-2.333 2.172 2.172 0 012.32-2.01 2.177 2.177 0 011.999 2.333 2.173 2.173 0 01-2.32 2.01m14.265-2.45l-6.389-1.293-1.15.869-.291 3.937.958 1.71 5.056 3.015.468.286a.582.582 0 00.233.072.526.526 0 00.287-.055.564.564 0 00.293-.447l.568-7.665c-.01-.143-.011-.285-.033-.429" mask="url(#d)"/><path fill="#565A5B" d="M68.567 7.15l-.483 6.514-2.256-1.349a1.582 1.582 0 01-.339-.265 1.666 1.666 0 01-.45-1.256l.182-2.443c.034-.467.272-.886.629-1.165l.011-.01c.37-.29.844-.395 1.304-.306l1.402.28z" mask="url(#d)"/><path fill="#565A5B" d="M68.567 7.15l-.483 6.514-2.256-1.349a1.582 1.582 0 01-.339-.265l.361-4.864.011-.01c.37-.29.844-.395 1.304-.306l1.402.28z" mask="url(#d)"/><path fill="#FFC501" d="M52.671 87.356l-.01.017c-7.384-.026-14.768-.005-22.151-.005H17.675a1.662 1.662 0 01-1.565-2.21l.013-.036a35.784 35.784 0 012.856-5.546c5.698-9.062 17.148-17.03 28.217-13.936 5.899 1.65 10.12 6.489 9.226 12.864-.449 3.203-1.976 6.154-3.75 8.852" mask="url(#d)"/><path fill="#D6A10D" d="M27.517 76.689h14.947v-1.187H27.517zm-1.573 3.164h14.947v-1.187H25.944zm1.573 2.769h14.947v-1.187H27.517z" mask="url(#d)"/><path fill="#FFF" d="M38.772 68.045c3.92-.214 8.944-.288 11.325 3.511.404.646 1.427.05 1.02-.6-2.633-4.202-7.945-4.339-12.345-4.1-.757.042-.761 1.23 0 1.189m12.152 5.813c.021.117.04.234.058.352l.012.081c-.009-.067-.009-.066 0 .005l.02.163a11.41 11.41 0 01.036 2.08c-.023.31.288.608.59.594.34-.015.567-.261.592-.594a12.092 12.092 0 00-.168-2.997c-.054-.306-.443-.507-.727-.415-.327.107-.471.403-.413.731" mask="url(#d)"/><path fill="#249370" d="M63.042 33.486a59.249 59.249 0 005.15-3.187c.311-.216.017-.73-.298-.513a59.249 59.249 0 01-5.15 3.187c-.334.183-.036.697.298.513" mask="url(#d)"/><path fill="#838B8C" d="M70.01 57.078c-.43.522-.77 1.1-1.019 1.73-.057.146.062.334.206.367.17.039.303-.053.364-.208l.042-.105c-.022.053.022-.05.026-.059a6.093 6.093 0 01.554-.983c.102-.145.136-.191.245-.322.099-.12.125-.305 0-.42-.109-.1-.312-.128-.418 0" mask="url(#d)"/><path fill="#838B8C" d="M69.366 59.195a2.995 2.995 0 001.221-.481c.128-.087.197-.266.106-.407-.082-.127-.267-.199-.404-.106a2.947 2.947 0 01-.402.228c-.019.008-.093.054-.021.01-.02.012-.045.019-.066.026a2.757 2.757 0 01-.591.157c-.069.01-.144.08-.177.137a.304.304 0 00-.03.229c.024.072.067.14.136.177.074.04.145.043.228.03" mask="url(#d)"/><path fill="#838B8C" d="M69.034 58.99l1.335 4.86c.101.369.672.212.57-.157l-1.336-4.86c-.101-.368-.671-.213-.57.157M47.98 51.268a6.41 6.41 0 004.478-2.618c.224-.31-.288-.606-.51-.3a5.764 5.764 0 01-3.968 2.323c-.16.019-.294.124-.295.298-.002.146.137.314.295.297" mask="url(#d)"/><path fill="#269E79" d="M59.854 27.395s.965 13.682 4.079 13.984l2.784-7.806-4.783-6.527-2.08.349z" mask="url(#d)"/><path fill="#FEC5B5" d="M62.026 29.669l3.644 6.277 15.055 8.722c.872 2.192 3.051 1.315 3.923 2.63.405.21 2.615-.876 2.615-1.315l-.872-1.753-1.535-.581-2.387-.296L69.21 32.782l-3.219-6.62-3.965 3.507z" mask="url(#d)"/><path fill="#31CEA3" d="M63.549 18.846l6.055 11.167-6.687 3.56-4.327-7.516z" mask="url(#d)"/><path fill="#249370" d="M58.903 26.066l3.526 7.489c.162.345.672.044.51-.3l-3.526-7.489c-.162-.345-.672-.044-.51.3" mask="url(#d)"/></g></svg>