<svg xmlns="http://www.w3.org/2000/svg" width="150" height="110"><g fill="none" fill-rule="evenodd"><path fill="#FCF9F3" d="M2.635 109.736c-5.66-8.095-1.16-18.54 3.739-23.134 3.146-2.952 7.934-6.161 10.108-9.886 2.356-4.034 1.51-9.066 1.574-13.737.086-6.147 2.024-12.425 6.215-16.922 4.19-4.499 10.808-6.913 16.73-5.26 4.508 1.259 8.354 4.674 13.018 5.071 5.372.458 10.105-3.147 14.736-5.907 5.332-3.177 12.017-5.416 17.663-2.834 6.865 3.14 8.986 11.61 12.8 18.125 4.695 8.02 13.023 13.814 22.175 15.43 5.209.92 11.34.913 14.587 5.089 3.22 4.142 1.777 10.214 3.569 15.145 1.27 3.496 4.068 6.166 6.443 9.03 2.375 2.862 4.48 6.408 3.916 10.084l-147.273-.294z"/><path fill="#D7E5ED" d="M64.008 103.043V54.925a5.69 5.69 0 015.691-5.69h60.143a5.69 5.69 0 015.69 5.69v48.118a5.69 5.69 0 01-5.69 5.691H69.7a5.69 5.69 0 01-5.691-5.69"/><path fill="#DFEEF6" d="M68.063 100.271V58.017a4.998 4.998 0 014.998-4.997h52.813a4.998 4.998 0 014.998 4.997v42.254a4.998 4.998 0 01-4.998 4.998H73.061a4.998 4.998 0 01-4.998-4.998"/><path fill="#31CFA4" d="M125.603 65.372c0 5.274-4.276 9.549-9.55 9.549-5.273 0-9.549-4.275-9.549-9.55 0-5.273 4.276-9.548 9.55-9.548 5.273 0 9.549 4.275 9.549 9.549"/><path fill="#23B79A" d="M116.805 74.47a9.55 9.55 0 01-5.269-17.513 9.549 9.549 0 00-5.032 8.415c0 5.274 4.276 9.549 9.55 9.549a9.504 9.504 0 005.268-1.586 9.495 9.495 0 01-4.517 1.135"/><path stroke="#23B79A" stroke-width=".961" d="M111.467 57.026l9.925 16.241"/><path fill="#31CFA4" d="M125.603 93.113c0 5.274-4.276 9.55-9.55 9.55-5.273 0-9.549-4.276-9.549-9.55 0-5.274 4.276-9.55 9.55-9.55 5.273 0 9.549 4.276 9.549 9.55"/><path fill="#23B79A" d="M116.805 102.211a9.55 9.55 0 01-5.269-17.512 9.546 9.546 0 00-5.032 8.414c0 5.274 4.276 9.55 9.55 9.55a9.496 9.496 0 005.268-1.587 9.495 9.495 0 01-4.517 1.135"/><path stroke="#23B79A" stroke-width=".961" d="M111.467 84.767l9.925 16.241"/><path fill="#31CFA4" d="M97.131 65.372a9.549 9.549 0 01-9.55 9.549c-5.273 0-9.548-4.275-9.548-9.55 0-5.273 4.275-9.548 9.549-9.548 5.274 0 9.55 4.275 9.55 9.549"/><path fill="#23B79A" d="M88.334 74.47a9.55 9.55 0 01-5.27-17.513 9.547 9.547 0 00-5.03 8.415c0 5.274 4.274 9.549 9.548 9.549a9.505 9.505 0 005.269-1.586 9.501 9.501 0 01-4.517 1.135"/><path stroke="#23B79A" stroke-width=".961" d="M82.995 57.026l9.925 16.241"/><path fill="#31CFA4" d="M97.131 93.113a9.55 9.55 0 11-9.549-9.55c5.274 0 9.55 4.276 9.55 9.55"/><path fill="#23B79A" d="M88.334 102.211a9.55 9.55 0 01-5.27-17.512 9.544 9.544 0 00-5.03 8.414c0 5.274 4.274 9.55 9.548 9.55a9.497 9.497 0 005.269-1.587 9.501 9.501 0 01-4.517 1.135"/><path stroke="#23B79A" stroke-width=".961" d="M82.995 84.767l9.925 16.241"/><path fill="#31CFA4" d="M70.734 108.734H22.746a5.264 5.264 0 01-5.264-5.264V32.213a5.264 5.264 0 015.264-5.264h47.988a5.264 5.264 0 015.264 5.264v71.257a5.264 5.264 0 01-5.264 5.264"/><path fill="#23B79A" d="M17.482 102.968a5.767 5.767 0 005.766 5.766h8.277a5.766 5.766 0 01-5.766-5.766v-15.45h-8.277v15.45zm8.277-70.253a5.767 5.767 0 015.766-5.766h-8.277a5.767 5.767 0 00-5.766 5.766V51.93h8.277V32.715z"/><path fill="#23B79A" d="M70.232 27.975H23.248a5.767 5.767 0 00-5.766 5.767v7.237h58.516v-7.237a5.767 5.767 0 00-5.766-5.767"/><path fill="#31CFA4" d="M77.489 37.557H15.99a2.743 2.743 0 01-2.743-2.744v-7.537a2.742 2.742 0 012.743-2.744h61.5a2.744 2.744 0 012.744 2.744v7.537a2.745 2.745 0 01-2.744 2.744"/><path fill="#FDE98E" d="M81.071 77.063L99.103 94.35c3.266 3.131 3.36 8.263.212 11.464h-.001c-3.15 3.203-8.35 3.26-11.617.13L69.666 88.655c-3.266-3.13-3.36-8.263-.212-11.464 3.15-3.203 8.351-3.26 11.617-.129"/><path fill="#FFC501" d="M75.781 82.963l18.032 17.286a8.321 8.321 0 007.503 2.124 7.98 7.98 0 01-2.001 3.44h-.001c-3.15 3.202-8.351 3.26-11.617.128L69.666 88.655c-3.266-3.13-3.36-8.263-.213-11.463v-.001a8.131 8.131 0 014.115-2.252 8.07 8.07 0 002.213 8.024"/><path fill="#F76B6D" d="M78.682 97.3l9.016 8.643c3.266 3.13 8.466 3.073 11.615-.128 3.15-3.202 3.055-8.336-.211-11.466l-9.016-8.644L78.682 97.3z"/><path fill="#E25A61" d="M87.697 105.942L78.683 97.3l5.85-5.948 9.28 8.896a8.317 8.317 0 007.503 2.125 8.07 8.07 0 01-2.002 3.44c-3.15 3.203-8.351 3.26-11.617.129"/><path fill="#FDE98E" d="M46.7 92.698l24.355.153c4.41.028 7.918 3.598 7.834 7.975v.001c-.084 4.378-3.729 7.905-8.14 7.877l-24.354-.152c-4.411-.029-7.918-3.599-7.835-7.976.083-4.38 3.728-7.906 8.14-7.878"/><path fill="#FFC501" d="M46.908 100.421l24.355.153A8.113 8.113 0 0078 97.048a7.782 7.782 0 01.888 3.778v.001c-.083 4.378-3.728 7.905-8.14 7.877l-24.354-.153c-4.41-.028-7.918-3.598-7.834-7.975v-.001a7.91 7.91 0 011.403-4.351 7.87 7.87 0 006.945 4.197"/><path fill="#F76B6D" d="M58.573 108.628l12.177.077c4.411.027 8.055-3.499 8.138-7.877.084-4.378-3.424-7.95-7.835-7.977l-12.178-.077-.302 15.854z"/><path fill="#E25A61" d="M70.748 108.705l-12.175-.077.155-8.132 12.534.079a8.115 8.115 0 006.737-3.526 7.863 7.863 0 01.89 3.778c-.084 4.379-3.729 7.906-8.14 7.878"/><path fill="#FFF" d="M48.567 87.502h-31.09V51.857h31.09a4.556 4.556 0 014.556 4.555v26.536a4.555 4.555 0 01-4.556 4.554"/><path fill="#BADEEF" d="M17.477 87.502h8.528V51.857h-8.528z"/><path fill="#697272" d="M75.474 22.843H18.006a3.57 3.57 0 01-3.569-3.57V3.57A3.57 3.57 0 0118.006 0h57.468a3.57 3.57 0 013.569 3.57v15.705a3.57 3.57 0 01-3.57 3.569"/><path fill="#565A5B" d="M27.099 18.933V3.91A3.91 3.91 0 0131.009 0H18.345a3.91 3.91 0 00-3.908 3.91v15.024a3.91 3.91 0 003.908 3.91h12.662a3.91 3.91 0 01-3.909-3.91"/><path fill="#4A5051" d="M20.191 2.572l-.09 18.38c-.003.523.812.524.814 0l.09-18.38c.003-.525-.811-.525-.814 0"/><path fill="#565A5B" d="M28.584 2.572l-.09 18.38c-.003.523.811.524.814 0l.09-18.38c.003-.525-.812-.525-.814 0m8.392 0l-.09 18.38c-.003.523.811.524.814 0l.09-18.38c.003-.525-.812-.525-.814 0m8.392 0l-.09 18.38c-.003.523.812.524.814 0l.09-18.38c.003-.525-.811-.525-.814 0m8.392 0l-.09 18.38c-.003.523.812.524.815 0l.09-18.38c.003-.525-.812-.525-.814 0m8.392 0l-.09 18.38c-.003.523.811.524.814 0l.09-18.38c.003-.525-.811-.525-.814 0m8.392 0l-.09 18.38c-.003.523.811.524.814 0l.09-18.38c.003-.525-.811-.525-.814 0"/></g></svg>