<svg xmlns="http://www.w3.org/2000/svg" xmlns:xlink="http://www.w3.org/1999/xlink" width="150" height="110"><defs><path id="a" d="M0 .002h149.749v74.26H0z"/></defs><g fill="none" fill-rule="evenodd"><g transform="matrix(-1 0 0 1 150 35.636)"><mask id="b" fill="#fff"><use xlink:href="#a"/></mask><path fill="#FFF2DC" d="M149.666 74.262l-2.686-.005h-32.308l-.66-.005-4.62-.01-5.502-.008h-.562l-2.018-.005-5.778-.014-20.931-.042h-.318l-3.868-.004-6.512-.014h-.005l-16.292-.033-17.261-.037-6.125-.014-2.15-.004-3.702-.005-9.615-.019-6.124-.014c-5.65-8.127-1.154-18.611 3.734-23.225 3.143-2.961 7.92-6.187 10.094-9.923 2.35-4.052 1.504-9.102 1.57-13.794.087-6.169 2.02-12.471 6.202-16.988 4.186-4.516 10.79-6.938 16.703-5.281 4.5 1.267 8.34 4.692 12.997 5.091 5.363.46 10.09-3.16 14.709-5.927 5.326-3.193 12-5.44 17.635-2.85 6.855 3.157 8.973 11.66 12.78 18.2a32.08 32.08 0 005.955 7.384 32.8 32.8 0 004.269 3.327v.005c.036.023.073.046.115.07a32.154 32.154 0 005.16 2.733c2.133.9 4.357 1.565 6.637 1.968 5.201.924 11.322.92 14.562 5.11.793 1.022 1.301 2.163 1.647 3.375 1.057 3.713.568 8.099 1.915 11.83 1.27 3.51 4.062 6.192 6.435 9.065.7.85 1.38 1.76 1.975 2.715 1.394 2.256 2.317 4.772 1.943 7.348" mask="url(#b)"/></g><path fill="#31CEA3" d="M7.688 100.39c0 3.367 2.715 6.097 6.064 6.097s6.063-2.73 6.063-6.097c0-3.368-2.714-6.098-6.063-6.098-3.349 0-6.064 2.73-6.064 6.098"/><path fill="#31CEA3" d="M3.066 108.376c0 .52.051 1.026.153 1.518h14.995a7.74 7.74 0 00-.581-4.818 7.656 7.656 0 00-1.33-1.954 7.608 7.608 0 00-8.552-1.842 7.685 7.685 0 00-3.738 3.383 7.74 7.74 0 00-.947 3.713"/><path fill="#FDE98E" d="M12.602 75.998v33.896h22.726l.66-.004 4.62-.01V73.677l-5.16-5.189-4.08-4.103-8.802 1.773z"/><path fill="#FFC501" d="M35.328 76.94v32.954l.66-.005 4.62-.01 5.501-.008c-.156-1.899.014-32.24.014-32.24l-5.516-.352-4.619-.297-.66-.042z"/><path fill="#FFC501" d="M35.988 72.805v37.084l4.62-.009 5.502-.009h.562V72.805z"/><path fill="#D6A10D" d="M35.328 77.869l12.416.143c0-2.382-9.23-4.335-9.23-4.335l-9.348-9.4h-4.728l-11.891 11.96v2.029L24.44 66.77l10.888 11.099z"/><path fill="#A05A2B" d="M24.439 64.386L35.699 76h7.218V64.386z"/><path fill="#FFC501" d="M26.748 109.894h-4.62V97.488h4.62z"/><path fill="#1EAA80" d="M40.608 59.452v50.428l5.502-.009h.563l2.017-.005 5.778-.014 20.931-.042h.318V56.838l-.318.024-27.157 2.023-4.874.362z"/><path fill="#59EAB9" d="M40.608 62.352v47.528l5.502-.009h.563l2.017-.005 5.778-.014 20.931-.042h.198V62.352z"/><path fill="#1EAA80" d="M76.177 92.55h-35.57v-3.774h35.57z"/><path fill="#33B895" d="M127.802 108.376c0 .455.046.896.129 1.328l3.701-.005 9.614-.019c.083-.422.125-.858.125-1.304 0-3.769-3.037-6.827-6.785-6.827-.766 0-1.5.13-2.187.362a6.57 6.57 0 00-1.274.594 6.796 6.796 0 00-3.3 5.356v.005a4.527 4.527 0 00-.023.51"/><path fill="#33B895" d="M118.851 101.406c0 3.768 3.038 6.823 6.785 6.823 3.748 0 6.785-3.055 6.785-6.823 0-3.769-3.037-6.824-6.785-6.824-3.747 0-6.785 3.055-6.785 6.824"/><path fill="#33B895" d="M118.852 106.51c0 1.165.291 2.256.804 3.212l6.124-.014 2.15-.004 3.702-.005c.504-.952.79-2.033.79-3.189a6.78 6.78 0 00-.494-2.552 6.735 6.735 0 00-.803-1.453 6.737 6.737 0 00-5.345-2.813c-.046-.004-.097-.004-.143-.004a6.773 6.773 0 00-6.29 4.27 6.761 6.761 0 00-.495 2.552"/><path fill="#A18DFC" d="M26.748 87.614h-4.619v-4.645h4.619z"/><path fill="#31CEA3" d="M75.399 52.629v57.181h.318l3.868-.004 6.512-.014h.004c5.004-2.46 16.293-8.387 16.293-8.387V59.452L89.402 45.806l-14.003 6.823z"/><path fill="#FFC501" d="M102.394 84.422v25.337l17.261-.037 6.125-.014V87.903l-11.548-11.905z"/><path fill="#FDE98E" d="M79.585 87.323v22.483l6.512-.014h.005l16.292-.033V84.422z"/><path fill="#D6A10D" d="M102.394 84.42v5.408l.286-.181H79.585v-2.323z"/><path fill="#FFC501" d="M93.732 101.551h-5.197v-5.226h5.197z"/><path fill="#D6A10D" d="M117.119 101.551h-5.197v-5.226h5.197z"/><path fill="#31CEA3" d="M65.726 73.677h-4.62v-4.645h4.62zm-.698 27.03h-4.619v-4.646h4.619zm-10.562-27.03h-4.62v-4.645h4.62z"/><path fill="#208966" d="M91.134 73.677h-4.62v-4.645h4.62z"/><path fill="#31CEA3" d="M75.716 80.702v9.126h-6.93v-2.504zM48.69 96.322v13.544l5.778-.014v-13.53z"/><path fill="#A05A2B" d="M79.585 87.324h22.809L114.231 76H91.133z"/><path fill="#208966" d="M75.254 59.45l14.147-13.646H53.889L40.607 59.45zM41.069 80.82c0 .234 34.647 0 34.647 0l-6.757 6.795H33.85l7.219-6.795z"/><path fill="#59EAB9" d="M68.786 89.937H33.851v-2.323h34.935z"/><path fill="#F76B6D" d="M46.615 59.874c10.943 0 19.847-8.953 19.847-19.958 0-11.005-8.904-19.958-19.847-19.958-10.943 0-19.846 8.953-19.846 19.958 0 11.005 8.903 19.958 19.846 19.958m0-59.874c21.887 0 39.693 17.871 39.693 39.838 0 27.261-35.521 67.282-37.033 68.972a3.554 3.554 0 01-2.66 1.19h-7.333c-.835 0 3.305-2.728 1.587-4.775C31.924 94.56 6.923 62.709 6.923 39.838 6.923 17.871 24.729 0 46.615 0"/><path fill="#FF7C78" d="M39.692 59.874c10.943 0 19.846-8.953 19.846-19.958 0-11.005-8.903-19.958-19.846-19.958s-19.846 8.953-19.846 19.958c0 11.005 8.903 19.958 19.846 19.958m0-59.874c21.887 0 39.693 17.871 39.693 39.838 0 27.261-35.521 67.282-37.033 68.972a3.568 3.568 0 01-5.32 0C35.522 107.12 0 67.099 0 39.838 0 17.871 17.806 0 39.692 0"/></g></svg>